<svg xmlns="http://www.w3.org/2000/svg" viewBox="0 0 100 100" width="100" height="100">
  <defs>
    <linearGradient id="bookGrad" x1="0%" y1="0%" x2="100%" y2="100%">
      <stop offset="0%" style="stop-color:#4f46e5;stop-opacity:1" />
      <stop offset="100%" style="stop-color:#818cf8;stop-opacity:1" />
    </linearGradient>
  </defs>
  <!-- Book base -->
  <path d="M15 20 Q15 15 20 15 L80 15 Q85 15 85 20 L85 80 Q85 85 80 85 L20 85 Q15 85 15 80 Z" 
        fill="url(#bookGrad)" />
  <!-- Book spine -->
  <rect x="15" y="15" width="8" height="70" rx="2" fill="#312e81" opacity="0.3"/>
  <!-- Pages -->
  <rect x="28" y="25" width="48" height="3" rx="1.5" fill="white" opacity="0.9"/>
  <rect x="28" y="33" width="48" height="3" rx="1.5" fill="white" opacity="0.7"/>
  <rect x="28" y="41" width="40" height="3" rx="1.5" fill="white" opacity="0.7"/>
  <rect x="28" y="49" width="48" height="3" rx="1.5" fill="white" opacity="0.9"/>
  <rect x="28" y="57" width="35" height="3" rx="1.5" fill="white" opacity="0.7"/>
  <rect x="28" y="65" width="48" height="3" rx="1.5" fill="white" opacity="0.7"/>
  <!-- Bookmark -->
  <path d="M70 15 L70 35 L74 30 L78 35 L78 15" fill="#f97316"/>
</svg>
